<svg xmlns="http://www.w3.org/2000/svg" width="32" height="32" viewBox="0 0 32 32" fill="none">
  <defs>
    <linearGradient id="gradient1" x1="0%" y1="0%" x2="100%" y2="100%">
      <stop offset="0%" stop-color="#3b82f6" />
      <stop offset="100%" stop-color="#22d3ee" />
    </linearGradient>
  </defs>
  <rect width="32" height="32" rx="6" fill="black" />
  <path d="M10 8H14V22C14 23.1046 13.1046 24 12 24H10V22H12V8Z" fill="url(#gradient1)" />
  <path d="M18 8C15.7909 8 14 9.79086 14 12V16C14 18.2091 15.7909 20 18 20H20C21.1046 20 22 19.1046 22 18V16H20V18H18C16.8954 18 16 17.1046 16 16V12C16 10.8954 16.8954 10 18 10H20C21.1046 10 22 10.8954 22 12V13H24V12C24 9.79086 22.2091 8 20 8H18Z" fill="url(#gradient1)" />
  <rect x="1" y="1" width="30" height="30" rx="5" stroke="url(#gradient1)" stroke-width="1" />
</svg>
